<svg width="16" height="14" viewBox="0 0 16 14" fill="none" xmlns="http://www.w3.org/2000/svg">
<path d="M15.47 6.83C14.8989 5.33541 13.903 4.04056 12.605 3.105L15 0.705L14.295 0L1.00003 13.295L1.70503 14L4.25503 11.455C5.39324 12.1184 6.68279 12.4782 8.00003 12.5C9.62977 12.4387 11.2058 11.9012 12.5334 10.954C13.861 10.0067 14.882 8.69118 15.47 7.17C15.5097 7.06015 15.5097 6.93985 15.47 6.83ZM8.00003 10.25C7.31083 10.2497 6.6398 10.0289 6.08503 9.62L7.00003 8.715C7.37943 8.92288 7.816 9.00213 8.24426 8.94087C8.67252 8.87961 9.06936 8.68114 9.37527 8.37524C9.68117 8.06933 9.87964 7.67248 9.9409 7.24423C10.0022 6.81597 9.92291 6.3794 9.71503 6L10.62 5.095C10.9723 5.5788 11.1839 6.15058 11.2314 6.74713C11.279 7.34368 11.1606 7.94176 10.8895 8.47526C10.6184 9.00875 10.205 9.45687 9.69503 9.77008C9.18509 10.0833 8.59847 10.2494 8.00003 10.25Z" fill="#0A0A0A"/>
<path d="M2.26503 9.905L4.76503 7.405C4.75203 7.27041 4.74702 7.13518 4.75003 7C4.75135 6.13845 5.09419 5.31257 5.70339 4.70336C6.3126 4.09416 7.13848 3.75132 8.00003 3.75C8.13207 3.7507 8.26396 3.75905 8.39503 3.775L10.285 1.89C9.54945 1.63735 8.77777 1.50564 8.00003 1.5C6.37029 1.56129 4.79423 2.09878 3.46663 3.04604C2.13904 3.99331 1.11811 5.30882 0.530031 6.83C0.490315 6.93985 0.490315 7.06015 0.530031 7.17C0.914044 8.19132 1.5047 9.12241 2.26503 9.905Z" fill="#0A0A0A"/>
</svg>
