<svg width="16" height="14" viewBox="0 0 16 14" fill="none" xmlns="http://www.w3.org/2000/svg">
<path d="M15.0207 8.64645L13.5207 7.14645C13.3254 6.95115 13.009 6.95115 12.8137 7.14645L8.16717 11.7929V14H10.3742L15.0207 9.3535C15.216 9.1582 15.216 8.8418 15.0207 8.64645ZM9.96017 13H9.16722V12.207L11.6672 9.707L12.4602 10.5L9.96017 13ZM13.1672 9.7929L12.3743 8.99995L13.1672 8.207L13.9602 8.99995L13.1672 9.7929Z" fill="#0A0A0A"/>
<path d="M7.16722 10C5.48507 10 4.16722 8.68215 4.16722 7C4.16722 5.31785 5.48507 4 7.16722 4C8.84937 4 10.1672 5.31785 10.1672 7C10.1672 8.68215 8.84937 10 7.16722 10ZM7.16722 5C6.02707 5 5.16722 5.85985 5.16722 7C5.16722 8.14015 6.02707 9 7.16722 9C8.30737 9 9.16722 8.14015 9.16722 7C9.16722 5.85985 8.30737 5 7.16722 5Z" fill="#0A0A0A"/>
<path d="M12.9409 5.00025L13.807 4.50025L12.6393 2.47805C12.4567 2.16165 12.1226 1.9778 11.7732 1.9778C11.6665 1.9778 11.5585 1.9949 11.4529 2.0308L10.2359 2.4424C10.0269 2.3018 9.80787 2.1748 9.57987 2.06325L9.32802 0.80395C9.23452 0.3364 8.82412 0 8.34742 0H5.98707C5.51037 0 5.09997 0.33645 5.00647 0.80395L4.75462 2.06325C4.52512 2.17555 4.30152 2.29785 4.09127 2.43995L2.88157 2.03075C2.77597 1.99485 2.66797 1.97775 2.56127 1.97775C2.21192 1.97775 1.87782 2.1616 1.69517 2.478L0.514866 4.52195C0.276566 4.9348 0.362766 5.45845 0.720816 5.77315L1.68627 6.62155C1.67772 6.7473 1.66722 6.8723 1.66722 6.99995C1.66722 7.12885 1.67237 7.2563 1.68112 7.38275L0.720766 8.22675C0.362716 8.54145 0.276566 9.06515 0.514816 9.47795L1.69512 11.5219C1.87772 11.8383 2.21182 12.0222 2.56122 12.0222C2.66792 12.0222 2.77607 12.005 2.88152 11.9691L4.09857 11.5576C4.30757 11.6984 4.52657 11.8251 4.75457 11.9367L5.00642 13.196C5.09992 13.6636 5.51032 14 5.98702 14H7.16722V13H5.98702L5.63192 11.2246C5.14427 11.0465 4.68062 10.7715 4.28452 10.4389L2.56112 11.0219L1.38092 8.97795L2.74357 7.78045C2.65167 7.25895 2.64787 6.73895 2.74002 6.2165L1.38087 5.0219L2.56142 2.97795L4.27482 3.55755C4.67642 3.2194 5.13957 2.955 5.63187 2.7753L5.98697 0.9999H8.34732L8.70242 2.7753C9.19007 2.9533 9.65357 3.2284 10.0498 3.56095L11.7732 2.97795L12.9409 5.00025Z" fill="#0A0A0A"/>
</svg>
