<svg width="15" height="13" viewBox="0 0 15 13" fill="none" xmlns="http://www.w3.org/2000/svg">
<path d="M8.12 13L7.25 12.5L9.25 9H12.25C12.5152 9 12.7696 8.89464 12.9571 8.70711C13.1446 8.51957 13.25 8.26522 13.25 8V2C13.25 1.73478 13.1446 1.48043 12.9571 1.29289C12.7696 1.10536 12.5152 1 12.25 1H2.25C1.98478 1 1.73043 1.10536 1.54289 1.29289C1.35536 1.48043 1.25 1.73478 1.25 2V8C1.25 8.26522 1.35536 8.51957 1.54289 8.70711C1.73043 8.89464 1.98478 9 2.25 9H6.75V10H2.25C1.71957 10 1.21086 9.78929 0.835786 9.41421C0.460714 9.03914 0.25 8.53043 0.25 8V2C0.25 1.46957 0.460714 0.960859 0.835786 0.585786C1.21086 0.210714 1.71957 0 2.25 0H12.25C12.7804 0 13.2891 0.210714 13.6642 0.585786C14.0393 0.960859 14.25 1.46957 14.25 2V8C14.25 8.53043 14.0393 9.03914 13.6642 9.41421C13.2891 9.78929 12.7804 10 12.25 10H9.83L8.12 13Z" fill="#0A0A0A" style="fill:#0A0A0A;fill:color(display-p3 0.0392 0.0392 0.0392);fill-opacity:1;"/>
</svg>
