<svg width="16" height="16" viewBox="0 0 16 16" fill="none" xmlns="http://www.w3.org/2000/svg">
<path d="M6.75123 2.7068C6.52201 3.68541 6.49082 4.69999 6.6595 5.69083C6.82818 6.68168 7.19331 7.62878 7.73343 8.47643C8.27354 9.32407 8.97773 10.0551 9.80455 10.6266C10.6314 11.1981 11.5641 11.5984 12.548 11.8041C12.0307 12.3392 11.4112 12.765 10.7262 13.0561C10.0413 13.3472 9.30479 13.4977 8.56053 13.4987C8.49128 13.4987 8.42143 13.5013 8.35163 13.4987C7.05596 13.4529 5.81728 12.9547 4.85072 12.0906C3.88415 11.2265 3.25078 10.0512 3.0606 8.76875C2.87041 7.48629 3.13544 6.17773 3.80964 5.07034C4.48384 3.96295 5.52463 3.12669 6.75123 2.7068ZM7.48998 1.5C7.46071 1.50005 7.4315 1.50266 7.40268 1.5078C5.81056 1.79059 4.37939 2.65251 3.38482 3.92753C2.39026 5.20254 1.90266 6.80048 2.01594 8.41355C2.12922 10.0266 2.83537 11.5407 3.99837 12.6642C5.16137 13.7877 6.69896 14.4412 8.31498 14.4986C8.39703 14.5016 8.47908 14.4986 8.56043 14.4986C9.60984 14.4992 10.644 14.2471 11.5753 13.7636C12.5067 13.2801 13.308 12.5794 13.9114 11.7208C13.9603 11.6469 13.9889 11.5613 13.9942 11.4728C13.9995 11.3842 13.9814 11.2958 13.9417 11.2165C13.902 11.1372 13.8421 11.0698 13.768 11.021C13.6939 10.9722 13.6083 10.9438 13.5198 10.9387C12.5209 10.851 11.5555 10.5349 10.6983 10.0146C9.84103 9.49439 9.11491 8.784 8.57602 7.93837C8.03713 7.09274 7.6999 6.13452 7.59042 5.13777C7.48093 4.14102 7.6021 3.13245 7.94458 2.19C7.97372 2.1146 7.98442 2.03332 7.97579 1.95295C7.96716 1.87257 7.93946 1.79542 7.89498 1.72792C7.85051 1.66042 7.79055 1.60452 7.72011 1.56487C7.64966 1.52523 7.57076 1.50299 7.48998 1.5Z" fill="black" style="fill:black;fill-opacity:1;"/>
</svg>
