<svg width="13" height="13" viewBox="0 0 13 13" fill="none" xmlns="http://www.w3.org/2000/svg">
<path d="M9 10.5C9.55228 10.5 10 10.0523 10 9.5C10 8.94771 9.55228 8.5 9 8.5C8.44771 8.5 8 8.94771 8 9.5C8 10.0523 8.44771 10.5 9 10.5Z" fill="black" style="fill:black;fill-opacity:1;"/>
<path d="M12.8884 9.23925C12.2569 7.6306 10.7274 6.5531 9 6.5C7.2726 6.5531 5.7431 7.6306 5.11155 9.23925L5 9.5L5.11155 9.76075C5.7431 11.3694 7.2726 12.4469 9 12.5C10.7274 12.4469 12.2569 11.3694 12.8884 9.76075L13 9.5L12.8884 9.23925ZM9 11.5C7.89545 11.5 7 10.6046 7 9.5C7 8.39545 7.89545 7.5 9 7.5C10.1046 7.5 11 8.39545 11 9.5C10.9987 10.604 10.104 11.4987 9 11.5Z" fill="black" style="fill:black;fill-opacity:1;"/>
<path d="M4 12H1C0.4486 12 0 11.5514 0 11V1C0 0.4486 0.4486 0 1 0H11C11.5514 0 12 0.4486 12 1V6H11V1H1V11H4V12Z" fill="black" style="fill:black;fill-opacity:1;"/>
</svg>
