<svg width="17" height="18" viewBox="0 0 17 18" fill="none" xmlns="http://www.w3.org/2000/svg">
<path d="M10.5 2.75H3V4H10.5V2.75Z" fill="black" style="fill:black;fill-opacity:1;"/>
<path d="M10.5 5.25H3V6.5H10.5V5.25Z" fill="black" style="fill:black;fill-opacity:1;"/>
<path d="M6.75 7.75H3V9H6.75V7.75Z" fill="black" style="fill:black;fill-opacity:1;"/>
<path d="M5.5 14H3V15.25H5.5V14Z" fill="black" style="fill:black;fill-opacity:1;"/>
<path d="M16.5669 11.0581L14.6919 9.18312C14.6339 9.12506 14.565 9.079 14.4892 9.04758C14.4133 9.01615 14.3321 8.99998 14.25 8.99998C14.1679 8.99998 14.0867 9.01615 14.0108 9.04758C13.935 9.079 13.8661 9.12506 13.8081 9.18312L8 14.9912V17.75H10.7588L16.5669 11.9419C16.6249 11.8839 16.671 11.815 16.7024 11.7392C16.7338 11.6633 16.75 11.5821 16.75 11.5C16.75 11.4179 16.7338 11.3367 16.7024 11.2608C16.671 11.185 16.6249 11.1161 16.5669 11.0581ZM10.2412 16.5H9.25V15.5088L12.375 12.3838L13.3662 13.375L10.2412 16.5ZM14.25 12.4912L13.2588 11.5L14.25 10.5088L15.2412 11.5L14.25 12.4912Z" fill="black" style="fill:black;fill-opacity:1;"/>
<path d="M5.5 17.75H1.75C1.41859 17.7497 1.10085 17.6178 0.8665 17.3835C0.632155 17.1492 0.500347 16.8314 0.5 16.5V1.5C0.500347 1.16859 0.632155 0.850846 0.8665 0.6165C1.10085 0.382155 1.41859 0.250347 1.75 0.25H11.75C12.0814 0.250347 12.3992 0.382155 12.6335 0.6165C12.8678 0.850846 12.9997 1.16859 13 1.5V7.75H11.75V1.5H1.75V16.5H5.5V17.75Z" fill="black" style="fill:black;fill-opacity:1;"/>
</svg>
