<svg width="24" height="24" viewBox="0 0 24 24" fill="none" xmlns="http://www.w3.org/2000/svg">
<rect width="24" height="24" fill="white" fill-opacity="0.01" style="mix-blend-mode:multiply"/>
<path d="M9.69043 17.248C9.60002 17.2475 9.50956 17.2451 9.41895 17.2412C9.50925 17.2453 9.59973 17.2472 9.69043 17.248ZM9.96094 17.2461C9.94174 17.2467 9.92253 17.2466 9.90332 17.2471C9.92253 17.2467 9.94174 17.2466 9.96094 17.2461ZM9.34863 17.2373C9.30767 17.2352 9.26657 17.2352 9.22559 17.2324C9.16134 17.228 9.09716 17.2199 9.0332 17.2139C9.138 17.224 9.24314 17.2316 9.34863 17.2373ZM9.56641 2.22559C11.3787 2.18445 13.1406 2.79975 14.5303 3.95117L14.8027 4.18848C16.1758 5.44216 17.031 7.15864 17.2119 9.00391C17.1971 8.85587 17.179 8.70794 17.1553 8.56055L17.1064 8.28711C16.8351 6.92306 16.19 5.66294 15.2461 4.64648L15.0537 4.44727C14.0703 3.46383 12.834 2.77385 11.4844 2.45312L11.2129 2.39453C9.75816 2.10525 8.2502 2.25368 6.87988 2.82129C5.59518 3.35348 4.48556 4.23158 3.67285 5.35547L3.51367 5.58301C2.68959 6.81633 2.25004 8.2667 2.25 9.75V9.75098C2.25221 11.7392 3.04333 13.6459 4.44922 15.0518C5.67614 16.2785 7.28422 17.0363 8.99512 17.2109C7.27296 17.0401 5.66354 16.2821 4.43848 15.0635L4.18848 14.8027C2.9662 13.464 2.27136 11.7319 2.22559 9.92773V9.56641C2.26677 7.75426 2.96168 6.02247 4.1748 4.68652L4.42383 4.42383C5.70565 3.14201 7.40488 2.36987 9.20508 2.24219L9.56641 2.22559ZM15.0713 15.0713L14.7588 15.3311C14.9631 15.1477 15.1573 14.9541 15.3398 14.75L15.0713 15.0713ZM17.2432 9.45801C17.2452 9.5134 17.2472 9.56871 17.248 9.62402C17.2471 9.56868 17.2453 9.51336 17.2432 9.45801ZM17.2324 9.22559C17.2343 9.25259 17.2348 9.27965 17.2363 9.30664C17.2332 9.25322 17.2289 9.19987 17.2246 9.14648C17.2267 9.17276 17.2306 9.19926 17.2324 9.22559Z" fill="#161616" stroke="#F9F9F9" stroke-width="1.5"/>
</svg>
