<svg width="16" height="16" viewBox="0 0 16 16" fill="none" xmlns="http://www.w3.org/2000/svg">
<path d="M14.295 6.655L15 5.95L10 1L9.345 1.71L9.935 2.3L6.94738 4.82738L7.65479 5.53479L10.645 3L13 5.355L10.4652 8.34521L11.1726 9.05262L13.7 6.065L14.295 6.655Z" fill="black" style="fill:black;fill-opacity:1;"/>
<path fill-rule="evenodd" clip-rule="evenodd" d="M4.19 7.16L3.33 6.305L2.625 7L5.455 9.84L1 14.29L1.705 15L6.16 10.545L9 13.375L9.695 12.665L8.84 11.81L9.87952 10.5812L14.3 15L15 14.295L1.705 1L1 1.705L5.41791 6.12125L4.19 7.16ZM4.9 7.87L8.13 11.1L9.17056 9.87249L6.1269 6.82997L4.9 7.87Z" fill="black" style="fill:black;fill-opacity:1;"/>
</svg>
